<svg xmlns="http://www.w3.org/2000/svg" xmlns:xlink="http://www.w3.org/1999/xlink" version="1.1" x="0px" y="0px" viewBox="0 0 96 120" style="enable-background:new 0 0 96 96;" xml:space="preserve" fill="white"><path d="M79.3,32.83H63.17V16.7c0-5.9-4.8-10.7-10.7-10.7h-8.94c-5.9,0-10.7,4.8-10.7,10.7v16.14H16.7c-5.9,0-10.7,4.8-10.7,10.7  v8.94c0,5.9,4.8,10.7,10.7,10.7h16.14V79.3c0,5.9,4.8,10.7,10.7,10.7h8.94c5.9,0,10.7-4.8,10.7-10.7V63.17H79.3  c5.9,0,10.7-4.8,10.7-10.7v-8.94C90,37.63,85.2,32.83,79.3,32.83z M86,52.47c0,3.69-3,6.7-6.7,6.7H60.17c-0.55,0-1,0.45-1,1V79.3  c0,3.69-3,6.7-6.7,6.7h-8.94c-3.69,0-6.7-3-6.7-6.7V60.17c0-0.55-0.45-1-1-1H16.7c-3.69,0-6.7-3-6.7-6.7v-8.94c0-3.69,3-6.7,6.7-6.7  h19.14c0.55,0,1-0.45,1-1V16.7c0-3.69,3-6.7,6.7-6.7h8.94c3.69,0,6.7,3,6.7,6.7v19.14c0,0.55,0.45,1,1,1H79.3c3.69,0,6.7,3,6.7,6.7  V52.47z"/></svg>