<svg width="35px" xmlns="http://www.w3.org/2000/svg" xmlns:xlink="http://www.w3.org/1999/xlink" xml:space="preserve" version="1.1" style="shape-rendering:geometricPrecision;text-rendering:geometricPrecision;image-rendering:optimizeQuality;" viewBox="0 0 233 291.25" x="0px" y="0px" fill-rule="evenodd" clip-rule="evenodd"><defs><style type="text/css">
   
    .fil0 {fill:white}
   
  </style></defs><g><path class="fil0" d="M100 0l32 0c8,0 15,6 15,14l0 72 71 0c8,0 15,6 15,14l0 32c0,8 -7,15 -15,15l-71 0 0 71c0,8 -7,15 -15,15l-32 0c-8,0 -14,-7 -14,-15l0 -71 -72 0c-8,0 -14,-7 -14,-15l0 -32c0,-8 6,-14 14,-14l72 0 0 -72c0,-8 6,-14 14,-14z"/></g></svg>