<svg fill="white" width="80px" height="80px" xmlns="http://www.w3.org/2000/svg" xmlns:xlink="http://www.w3.org/1999/xlink" version="1.1" x="0px" y="0px" viewBox="0 0 1000 1250" style="enable-background:new 0 0 1000 1000" xml:space="preserve"><path d="M900.5,500c0,50-40.9,90.8-90.8,90.8H590.8v218.8c0,50-40.9,90.8-90.8,90.8h0c-50,0-90.8-40.9-90.8-90.8  V590.8H190.4c-50,0-90.8-40.9-90.8-90.8v0c0-50,40.9-90.8,90.8-90.8h218.8V190.4c0-50,40.9-90.8,90.8-90.8h0  c50,0,90.8,40.9,90.8,90.8v218.8h218.8C859.6,409.2,900.5,450,900.5,500L900.5,500z"/></svg> 